<?xml version="1.0" encoding="utf-8"?>
<!-- Generator: Adobe Illustrator 19.2.0, SVG Export Plug-In . SVG Version: 6.00 Build 0)  -->
<svg version="1.1" id="Layer_1" xmlns="http://www.w3.org/2000/svg" xmlns:xlink="http://www.w3.org/1999/xlink" x="0px" y="0px"
	 viewBox="0 0 300 300" style="enable-background:new 0 0 300 300;" xml:space="preserve">
<style type="text/css">
	.st0{fill:url(#SVGID_1_);}
	.st1{fill:url(#SVGID_2_);}
	.st2{fill:url(#SVGID_3_);}
	.st3{fill:url(#SVGID_4_);}
	.st4{fill:url(#SVGID_5_);}
	.st5{fill:url(#SVGID_6_);}
</style>
<g>
	<linearGradient id="SVGID_1_" gradientUnits="userSpaceOnUse" x1="151.1626" y1="186.3511" x2="151.1626" y2="132.221">
		<stop  offset="0" style="stop-color:#B3E2D7"/>
		<stop  offset="0.2192" style="stop-color:#B8E2DB"/>
		<stop  offset="1" style="stop-color:#C8E1E8"/>
	</linearGradient>
	<polygon class="st0" points="106.9,157.2 150.3,132.2 195.4,157.2 150.3,186.4 106.9,160.6 	"/>
	<linearGradient id="SVGID_2_" gradientUnits="userSpaceOnUse" x1="116.6313" y1="206.5098" x2="116.6313" y2="72.4912">
		<stop  offset="0" style="stop-color:#B2DEE7"/>
		<stop  offset="0.9675" style="stop-color:#8FBAC7"/>
	</linearGradient>
	<polygon class="st1" points="82.7,111.3 150.6,72.5 150.6,137.1 111.8,159.5 111.8,206.5 82.7,189.3 	"/>
	<linearGradient id="SVGID_3_" gradientUnits="userSpaceOnUse" x1="43.0995" y1="182.3933" x2="150.8826" y2="182.3933">
		<stop  offset="0" style="stop-color:#7F828E"/>
		<stop  offset="1" style="stop-color:#8DA3AD"/>
	</linearGradient>
	<polygon class="st2" points="43.1,88.8 82.7,111.3 82.7,189.3 111.8,206.5 111.8,159.5 150.9,183 150.9,275.9 43.3,214.5 	"/>
	<linearGradient id="SVGID_4_" gradientUnits="userSpaceOnUse" x1="150.6026" y1="139.5005" x2="218.5452" y2="139.5005">
		<stop  offset="0" style="stop-color:#7F828E"/>
		<stop  offset="1" style="stop-color:#8DA3AD"/>
	</linearGradient>
	<polygon class="st3" points="218.5,111.3 150.6,72.5 150.6,137.1 189.4,159.5 189.4,206.5 218.5,189.3 	"/>
	<linearGradient id="SVGID_5_" gradientUnits="userSpaceOnUse" x1="204.2142" y1="275.9456" x2="204.2142" y2="88.8409">
		<stop  offset="0" style="stop-color:#B2DEE7"/>
		<stop  offset="0.9675" style="stop-color:#8FBAC7"/>
	</linearGradient>
	<polygon class="st4" points="258.1,88.8 218.5,111.3 218.5,189.3 189.4,206.5 189.4,159.5 150.3,183 150.3,275.9 257.9,214.5 	"/>
	<linearGradient id="SVGID_6_" gradientUnits="userSpaceOnUse" x1="150.6026" y1="111.3156" x2="150.6026" y2="30.5281">
		<stop  offset="0" style="stop-color:#B3E2D7"/>
		<stop  offset="0.2192" style="stop-color:#B8E2DB"/>
		<stop  offset="1" style="stop-color:#C8E1E8"/>
	</linearGradient>
	<polygon class="st5" points="258.1,88.8 150.6,30.5 43.1,88.8 82.7,111.3 150.6,72.5 218.5,111.3 	"/>
</g>
</svg>
